<?xml version="1.0" encoding="UTF-8"?>
<svg version="1.1" xmlns="http://www.w3.org/2000/svg" width="150" height="150">
<path d="M0 0 C0.43828125 0.42796875 0.8765625 0.8559375 1.328125 1.296875 C1.328125 1.956875 1.328125 2.616875 1.328125 3.296875 C1.90820312 3.52761719 2.48828125 3.75835938 3.0859375 3.99609375 C11.23781721 8.72532013 16.28335846 20.77346804 19.328125 29.296875 C23.79708568 46.36536228 22.71601513 63.92581582 14.015625 79.359375 C13.21705078 80.64521484 13.21705078 80.64521484 12.40234375 81.95703125 C11.1420852 84.16502672 11.1420852 84.16502672 11.55882263 86.22561646 C12.48834968 88.72826162 13.63886335 89.93212825 15.56274414 91.77685547 C16.24337418 92.43789276 16.92400421 93.09893005 17.6252594 93.77999878 C18.36380661 94.48423981 19.10235382 95.18848083 19.86328125 95.9140625 C21.40991247 97.42275969 22.95612363 98.93188761 24.50195312 100.44140625 C26.94787022 102.81280219 29.39824691 105.17918678 31.85668945 107.53759766 C34.22623815 109.81660397 36.57684204 112.11384695 38.92578125 114.4140625 C40.03663841 115.46435135 40.03663841 115.46435135 41.16993713 116.53585815 C46.19222202 121.48300083 46.19222202 121.48300083 46.88696289 125.64355469 C46.19244388 128.94107874 45.10286579 130.32606097 42.703125 132.671875 C42.03023437 133.36023438 41.35734375 134.04859375 40.6640625 134.7578125 C37.4526249 136.87370951 36.14706617 136.95293883 32.328125 136.296875 C29.30588014 134.05811237 26.82520742 131.34649393 24.26171875 128.60546875 C23.50520523 127.8262355 22.74869171 127.04700226 21.96925354 126.24415588 C19.55315881 123.75475596 17.15736033 121.24717437 14.765625 118.734375 C11.61475449 115.42436642 8.44490647 112.13437549 5.26171875 108.85546875 C4.54076523 108.08472519 3.81981171 107.31398163 3.07701111 106.5198822 C2.39602859 105.81908035 1.71504608 105.1182785 1.01342773 104.39624023 C0.42085678 103.77224838 -0.17171417 103.14825653 -0.78224182 102.50535583 C-2.6599829 101.03359466 -2.6599829 101.03359466 -5.229599 101.5216217 C-9.15776479 102.76854198 -12.62830717 104.77814699 -16.24609375 106.7265625 C-24.35184907 110.44208546 -31.71829957 111.80551696 -40.609375 111.671875 C-42.05896606 111.65882324 -42.05896606 111.65882324 -43.5378418 111.64550781 C-50.29140129 111.50638848 -56.36662428 110.86079021 -62.671875 108.296875 C-63.44144531 108.00683594 -64.21101563 107.71679688 -65.00390625 107.41796875 C-82.29971345 100.37589393 -93.02674782 87.7808913 -100.62890625 71.09765625 C-106.09611953 56.41603856 -105.87802817 37.71057393 -99.671875 23.296875 C-91.63224123 6.446969 -78.46639921 -5.07894709 -61.11328125 -11.67578125 C-39.90110675 -18.14474227 -17.41907014 -13.17051645 0 0 Z M-78.70703125 15.92578125 C-88.19911948 27.38044836 -92.02701052 40.50895867 -90.671875 55.296875 C-88.75279149 69.02174906 -81.54342637 80.75599543 -70.671875 89.296875 C-58.42837117 97.09914255 -46.1418444 100.21102896 -31.67578125 97.796875 C-18.36897606 94.47489243 -7.85114161 87.35899787 0.328125 76.296875 C7.70280213 63.66465293 10.40663697 51.62768935 7.140625 37.171875 C3.0814742 22.8058482 -5.55557822 11.64669257 -18.671875 4.296875 C-39.9756498 -5.10775237 -62.59714152 -1.3493808 -78.70703125 15.92578125 Z " fill="#000000" transform="translate(103.671875,13.703125)"/>
<path d="M0 0 C3.3 0 6.6 0 10 0 C12 6.625 12 6.625 12 10 C17.89711812 11.35713336 17.89711812 11.35713336 23.25 9 C24.1575 8.34 25.065 7.68 26 7 C30.15542641 7.17645123 32.4703708 9.9695668 35.3125 12.75 C36.66794922 14.04164062 36.66794922 14.04164062 38.05078125 15.359375 C40 18 40 18 39.89453125 20.71484375 C39 23 39 23 37.375 24.8125 C35.19714713 28.27726592 36.27704798 31.05662536 37 35 C40.3 35.33 43.6 35.66 47 36 C47 42.27 47 48.54 47 55 C42.05 55.495 42.05 55.495 37 56 C36.855625 56.763125 36.71125 57.52625 36.5625 58.3125 C36 61 36 61 35 64 C35.97229848 65.8948204 35.97229848 65.8948204 37.4375 67.6875 C37.91058594 68.31011719 38.38367188 68.93273437 38.87109375 69.57421875 C39.24363281 70.04472656 39.61617187 70.51523438 40 71 C38.46986989 74.55939356 36.36373709 77.02831385 33.6875 79.8125 C32.92824219 80.62332031 32.16898438 81.43414062 31.38671875 82.26953125 C29 84 29 84 26.3203125 83.86328125 C24 83 24 83 22.1875 81.375 C18.72273408 79.19714713 15.94337464 80.27704798 12 81 C11.93941406 81.62648438 11.87882812 82.25296875 11.81640625 82.8984375 C11.73261719 83.71570313 11.64882812 84.53296875 11.5625 85.375 C11.48128906 86.18710938 11.40007812 86.99921875 11.31640625 87.8359375 C11 90 11 90 10 92 C6.7 92 3.4 92 0 92 C0 84.41 0 76.82 0 69 C3.63 68.01 7.26 67.02 11 66 C17.77619147 62.28402403 21.34019571 57.35850396 23.6328125 49.95703125 C24.90422797 43.18065733 22.2668569 37.74485661 19.5 31.75 C14.34235201 26.07658722 7.37051675 24.22841946 0 23 C0 15.41 0 7.82 0 0 Z " fill="#000000" transform="translate(58,17)"/>
<path d="M0 0 C8.16815764 0 13.60959394 1.69435409 19.5 7.4375 C22.84811107 13.15718975 23.72037683 18.47087033 23 25 C20.81280193 32.04763821 16.97940464 37.3206992 10.5625 40.9375 C7 42 7 42 0 42 C0 28.14 0 14.28 0 0 Z " fill="#000000" transform="translate(58,42)"/>
<path d="M0 0 C0.33 0.99 0.66 1.98 1 3 C10.24 3 19.48 3 29 3 C29 4.32 29 5.64 29 7 C27.75126099 7.029729 27.75126099 7.029729 26.47729492 7.06005859 C23.385235 7.13820742 20.29356617 7.22490206 17.2019043 7.31738281 C15.2070464 7.37444092 13.2119146 7.42164442 11.21679688 7.46875 C9.33637695 7.52675781 9.33637695 7.52675781 7.41796875 7.5859375 C5.68196411 7.63306885 5.68196411 7.63306885 3.91088867 7.68115234 C0.80872972 7.79471033 0.80872972 7.79471033 -2 10 C-5.6875 9.625 -5.6875 9.625 -9 9 C-10.32 2.64 -10.32 2.64 -9 0 C-5.88291635 -1.55854182 -3.3141692 -0.68784644 0 0 Z " fill="#000000" transform="translate(28,58)"/>
<path d="M0 0 C3.375 0.6875 3.375 0.6875 4.375 1.6875 C4.53593266 3.65087845 4.69375582 5.61497766 4.80078125 7.58203125 C5.64666093 10.68359006 6.76529931 11.8034033 9.375 13.6875 C12.24096259 14.13638571 14.7565111 14.38175198 17.625 14.4375 C18.37007812 14.46714844 19.11515625 14.49679688 19.8828125 14.52734375 C21.71296672 14.5977343 23.54398769 14.64491832 25.375 14.6875 C25.375 16.0075 25.375 17.3275 25.375 18.6875 C22.3303906 18.87741128 19.29768634 19.01551567 16.25 19.125 C15.3940625 19.18365234 14.538125 19.24230469 13.65625 19.30273438 C7.31521897 19.47345444 7.31521897 19.47345444 4.55517578 17.16625977 C3 15.28125 3 15.28125 1.71875 13.39257812 C-0.52244586 10.54873512 -3.25950636 9.83176784 -6.625 8.6875 C-6.8125 5.3125 -6.8125 5.3125 -6.625 1.6875 C-3.625 -0.3125 -3.625 -0.3125 0 0 Z " fill="#000000" transform="translate(31.625,35.3125)"/>
<path d="M0 0 C0.84046875 0.01804687 1.6809375 0.03609375 2.546875 0.0546875 C4.61507395 0.10169202 6.68268441 0.17343276 8.75 0.25 C8.75 1.57 8.75 2.89 8.75 4.25 C7.64140625 4.26417969 6.5328125 4.27835937 5.390625 4.29296875 C3.92704216 4.33987846 2.46350177 4.38812581 1 4.4375 C0.27039063 4.44330078 -0.45921875 4.44910156 -1.2109375 4.45507812 C-5.04792162 4.61204566 -6.88634308 4.90928674 -9.7265625 7.5703125 C-11.56476729 10.80366758 -11.83476145 13.58205947 -12.25 17.25 C-14.25 19.25 -14.25 19.25 -17.1875 19.5 C-20.25 19.25 -20.25 19.25 -23.25 17.25 C-23.6875 14.3125 -23.6875 14.3125 -23.25 11.25 C-21.5 9.375 -21.5 9.375 -19.25 8.25 C-17.93 8.25 -16.61 8.25 -15.25 8.25 C-15.0025 7.6725 -14.755 7.095 -14.5 6.5 C-10.7766046 -0.20211172 -7.1294179 -0.2896326 0 0 Z " fill="#000000" transform="translate(48.25,70.75)"/>
<path d="M0 0 C2.2974403 0.02880803 4.32607167 0.23546653 6.5546875 0.78125 C6.5546875 2.10125 6.5546875 3.42125 6.5546875 4.78125 C4.5746875 4.78125 2.5946875 4.78125 0.5546875 4.78125 C0.3071875 5.4825 0.0596875 6.18375 -0.1953125 6.90625 C-1.4453125 9.78125 -1.4453125 9.78125 -3.5703125 12.59375 C-5.44872309 15.787048 -5.65372642 16.50488036 -5.5078125 19.96875 C-5.4453125 23.78125 -5.4453125 23.78125 -6.5703125 25.84375 C-9.40851144 27.26284947 -11.45505926 26.56131606 -14.4453125 25.78125 C-15.4453125 24.78125 -15.4453125 24.78125 -15.8828125 20.96875 C-15.8515625 18.74609375 -15.8515625 18.74609375 -15.4453125 16.78125 C-12.8828125 15.03125 -12.8828125 15.03125 -11.2109375 14.1875 C-8.60608812 12.1128412 -7.61180408 9.48923316 -6.1328125 6.53125 C-3.14082893 1.00345972 -3.14082893 1.00345972 0 0 Z " fill="#000000" transform="translate(50.4453125,76.21875)"/>
<path d="M0 0 C3.5625 0.1875 3.5625 0.1875 5.5625 2.1875 C5.48 3.3425 5.3975 4.4975 5.3125 5.6875 C5.12690459 10.7542547 7.50789759 13.9854788 10.25 18.0859375 C11.5625 20.1875 11.5625 20.1875 11.5625 22.1875 C13.5425 22.1875 15.5225 22.1875 17.5625 22.1875 C17.5625 23.1775 17.5625 24.1675 17.5625 25.1875 C14.34370041 25.91008766 11.75169824 26.12042921 8.5625 25.1875 C6.28260036 22.58190041 4.71614354 19.92792829 3.0703125 16.88671875 C1.00661175 13.19237363 -0.92765061 11.5273996 -4.4375 9.1875 C-4.90864738 6.4447492 -4.61555784 3.99191103 -4.4375 1.1875 C-3.4375 0.1875 -3.4375 0.1875 0 0 Z " fill="#000000" transform="translate(39.4375,22.8125)"/>
<path d="M0 0 C6.27 0 12.54 0 19 0 C19 1.32 19 2.64 19 4 C13.06 4 7.12 4 1 4 C0.67 2.68 0.34 1.36 0 0 Z " fill="#000000" transform="translate(38,56)"/>
<path d="M0 0 C5.94 0 11.88 0 18 0 C18 0.99 18 1.98 18 3 C11.73 3 5.46 3 -1 3 C-0.67 2.01 -0.34 1.02 0 0 Z " fill="#000000" transform="translate(39,66)"/>
</svg>
